<mxfile host="app.diagrams.net" agent="Mozilla/5.0 (Windows NT 10.0; Win64; x64) AppleWebKit/537.36 (KHTML, like Gecko) Chrome/123.0.0.0 Safari/537.36 OPR/109.0.0.0" version="24.7.7">
  <diagram name="Página-1" id="2alXb9Ua76mQgp3lZa1x">
    <mxGraphModel dx="1836" dy="1711" grid="1" gridSize="10" guides="1" tooltips="1" connect="1" arrows="1" fold="1" page="1" pageScale="1" pageWidth="827" pageHeight="1169" math="0" shadow="0">
      <root>
        <mxCell id="0" />
        <mxCell id="1" parent="0" />
        <mxCell id="as25Dl-nawI_TPOrROMk-1" value="Contrato" style="ellipse;whiteSpace=wrap;html=1;aspect=fixed;fontSize=18;verticalAlign=top;" parent="1" vertex="1">
          <mxGeometry x="250" y="170" width="310" height="310" as="geometry" />
        </mxCell>
        <mxCell id="as25Dl-nawI_TPOrROMk-6" style="edgeStyle=orthogonalEdgeStyle;rounded=0;orthogonalLoop=1;jettySize=auto;html=1;exitX=0.5;exitY=0;exitDx=0;exitDy=0;entryX=1;entryY=0.5;entryDx=0;entryDy=0;" parent="1" source="as25Dl-nawI_TPOrROMk-2" target="as25Dl-nawI_TPOrROMk-1" edge="1">
          <mxGeometry relative="1" as="geometry" />
        </mxCell>
        <mxCell id="as25Dl-nawI_TPOrROMk-2" value="Empresa" style="ellipse;whiteSpace=wrap;html=1;aspect=fixed;fontSize=18;verticalAlign=top;" parent="1" vertex="1">
          <mxGeometry x="620" y="465" width="280" height="280" as="geometry" />
        </mxCell>
        <mxCell id="as25Dl-nawI_TPOrROMk-7" style="edgeStyle=orthogonalEdgeStyle;rounded=0;orthogonalLoop=1;jettySize=auto;html=1;exitX=1;exitY=0.5;exitDx=0;exitDy=0;entryX=0.5;entryY=1;entryDx=0;entryDy=0;" parent="1" source="as25Dl-nawI_TPOrROMk-3" target="as25Dl-nawI_TPOrROMk-1" edge="1">
          <mxGeometry relative="1" as="geometry" />
        </mxCell>
        <mxCell id="as25Dl-nawI_TPOrROMk-3" value="Servicio" style="ellipse;whiteSpace=wrap;html=1;aspect=fixed;fontSize=18;verticalAlign=top;" parent="1" vertex="1">
          <mxGeometry x="-190" y="470" width="270" height="270" as="geometry" />
        </mxCell>
        <mxCell id="as25Dl-nawI_TPOrROMk-9" style="edgeStyle=orthogonalEdgeStyle;rounded=0;orthogonalLoop=1;jettySize=auto;html=1;exitX=0.5;exitY=1;exitDx=0;exitDy=0;entryX=0;entryY=0.5;entryDx=0;entryDy=0;" parent="1" source="as25Dl-nawI_TPOrROMk-4" target="as25Dl-nawI_TPOrROMk-1" edge="1">
          <mxGeometry relative="1" as="geometry" />
        </mxCell>
        <mxCell id="as25Dl-nawI_TPOrROMk-4" value="Geografifia" style="ellipse;whiteSpace=wrap;html=1;aspect=fixed;fontSize=18;verticalAlign=top;" parent="1" vertex="1">
          <mxGeometry x="-100" y="-150" width="250" height="250" as="geometry" />
        </mxCell>
        <mxCell id="as25Dl-nawI_TPOrROMk-8" style="edgeStyle=orthogonalEdgeStyle;rounded=0;orthogonalLoop=1;jettySize=auto;html=1;exitX=0;exitY=0.5;exitDx=0;exitDy=0;entryX=0.5;entryY=0;entryDx=0;entryDy=0;" parent="1" source="as25Dl-nawI_TPOrROMk-5" target="as25Dl-nawI_TPOrROMk-1" edge="1">
          <mxGeometry relative="1" as="geometry" />
        </mxCell>
        <mxCell id="as25Dl-nawI_TPOrROMk-5" value="Cliente" style="ellipse;whiteSpace=wrap;html=1;aspect=fixed;fontSize=18;verticalAlign=top;" parent="1" vertex="1">
          <mxGeometry x="690" y="-170" width="310" height="310" as="geometry" />
        </mxCell>
        <mxCell id="Ia4xIIDi5in7NBxOMhdP-1" value="Pais" style="ellipse;whiteSpace=wrap;html=1;aspect=fixed;fontSize=14;" parent="1" vertex="1">
          <mxGeometry x="-80" y="-100" width="100" height="100" as="geometry" />
        </mxCell>
        <mxCell id="Ia4xIIDi5in7NBxOMhdP-2" value="Ciudad" style="ellipse;whiteSpace=wrap;html=1;aspect=fixed;fontSize=14;" parent="1" vertex="1">
          <mxGeometry x="-20" width="90" height="90" as="geometry" />
        </mxCell>
        <mxCell id="Ia4xIIDi5in7NBxOMhdP-3" value="Departamento" style="ellipse;whiteSpace=wrap;html=1;aspect=fixed;fontSize=14;" parent="1" vertex="1">
          <mxGeometry x="30" y="-100" width="100" height="100" as="geometry" />
        </mxCell>
        <mxCell id="Ia4xIIDi5in7NBxOMhdP-4" value="Empleado" style="ellipse;whiteSpace=wrap;html=1;aspect=fixed;fontSize=18;" parent="1" vertex="1">
          <mxGeometry x="770" y="510" width="105" height="105" as="geometry" />
        </mxCell>
        <mxCell id="Ia4xIIDi5in7NBxOMhdP-5" value="Sede&lt;span style=&quot;white-space: pre; font-size: 18px;&quot;&gt;&#x9;&lt;/span&gt;" style="ellipse;whiteSpace=wrap;html=1;aspect=fixed;fontSize=18;" parent="1" vertex="1">
          <mxGeometry x="640" y="507.5" width="110" height="110" as="geometry" />
        </mxCell>
        <mxCell id="Ia4xIIDi5in7NBxOMhdP-6" value="Tipo Genero" style="ellipse;whiteSpace=wrap;html=1;aspect=fixed;fontSize=18;" parent="1" vertex="1">
          <mxGeometry x="850" y="-120" width="120" height="120" as="geometry" />
        </mxCell>
        <mxCell id="Ia4xIIDi5in7NBxOMhdP-7" value="Tipo Documento" style="ellipse;whiteSpace=wrap;html=1;aspect=fixed;fontSize=18;" parent="1" vertex="1">
          <mxGeometry x="717" y="-120" width="110" height="110" as="geometry" />
        </mxCell>
        <mxCell id="Ia4xIIDi5in7NBxOMhdP-8" value="Estado Servicio" style="ellipse;whiteSpace=wrap;html=1;aspect=fixed;fontSize=16;" parent="1" vertex="1">
          <mxGeometry x="-105" y="610" width="100" height="100" as="geometry" />
        </mxCell>
        <mxCell id="Ia4xIIDi5in7NBxOMhdP-9" value="Catalogo" style="ellipse;whiteSpace=wrap;html=1;aspect=fixed;fontSize=16;" parent="1" vertex="1">
          <mxGeometry x="-50" y="510" width="100" height="100" as="geometry" />
        </mxCell>
        <mxCell id="Ia4xIIDi5in7NBxOMhdP-10" value="Tipo Servicio" style="ellipse;whiteSpace=wrap;html=1;aspect=fixed;fontSize=16;" parent="1" vertex="1">
          <mxGeometry x="-160" y="510" width="100" height="100" as="geometry" />
        </mxCell>
        <mxCell id="Ia4xIIDi5in7NBxOMhdP-11" value="Estado de Reserva" style="ellipse;whiteSpace=wrap;html=1;aspect=fixed;fontSize=18;" parent="1" vertex="1">
          <mxGeometry x="355" y="340" width="100" height="100" as="geometry" />
        </mxCell>
        <mxCell id="Ia4xIIDi5in7NBxOMhdP-12" value="Detalle de Reserva" style="ellipse;whiteSpace=wrap;html=1;aspect=fixed;fontSize=18;" parent="1" vertex="1">
          <mxGeometry x="410" y="230" width="100" height="100" as="geometry" />
        </mxCell>
        <mxCell id="Ia4xIIDi5in7NBxOMhdP-13" value="Reserva" style="ellipse;whiteSpace=wrap;html=1;aspect=fixed;fontSize=18;" parent="1" vertex="1">
          <mxGeometry x="290" y="230" width="100" height="100" as="geometry" />
        </mxCell>
        <mxCell id="kBZx5zOLNgJZ3lgv-gd6-1" value="Barberia" style="ellipse;whiteSpace=wrap;html=1;aspect=fixed;fontSize=18;" parent="1" vertex="1">
          <mxGeometry x="700" y="617.5" width="105" height="105" as="geometry" />
        </mxCell>
        <mxCell id="kBZx5zOLNgJZ3lgv-gd6-2" value="Información Personal" style="ellipse;whiteSpace=wrap;html=1;aspect=fixed;fontSize=18;" parent="1" vertex="1">
          <mxGeometry x="762.5" y="-10" width="120" height="120" as="geometry" />
        </mxCell>
      </root>
    </mxGraphModel>
  </diagram>
</mxfile>
